<svg xmlns="http://www.w3.org/2000/svg" xmlns:xlink="http://www.w3.org/1999/xlink" width="628" height="499.262" viewBox="0 0 628 499.262">
  <defs>
    <linearGradient id="linear-gradient" x1="0.5" y1="1" x2="0.5" gradientUnits="objectBoundingBox">
      <stop offset="0" stop-color="gray" stop-opacity="0.251"/>
      <stop offset="0.54" stop-color="gray" stop-opacity="0.122"/>
      <stop offset="1" stop-color="gray" stop-opacity="0.102"/>
    </linearGradient>
  </defs>
  <g id="image" transform="translate(0 -0.008)">
    <path id="Caminho_1" data-name="Caminho 1" d="M462.016,137.836c-39.737-1.381-77.588-14.207-113.727-28.243S276.356,80.006,237.571,72.571c-24.946-4.783-53.477-5.458-73.573,7.914-19.346,12.893-25.6,35.089-28.955,55.706-2.53,15.509-4.015,31.828,2.916,46.349,4.807,10.081,13.348,18.554,19.248,28.243,20.55,33.6,6.029,75.028-16.24,107.833C130.53,334.007,118.4,348.7,110.349,365.068s-11.788,35.15-4.74,51.863c6.993,16.577,23.65,29,41.689,37.753,36.648,17.775,79.817,22.858,121.942,25.738,93.22,6.379,186.931,3.616,280.4.853,34.591-1.025,69.33-2.063,103.357-7.411,18.9-2.972,38.4-7.681,52.127-19.064,17.412-14.447,21.729-38.914,10.063-57.026-19.58-30.386-73.677-37.931-87.381-70.546-7.527-17.947.209-37.938,11.15-54.589,23.478-35.709,62.828-67.04,64.9-107.857,1.424-28.04-17.5-56.111-46.748-69.379-30.656-13.956-73.18-12.187-95.786,10.831C538.026,129.953,497.1,139.052,462.016,137.836Z" transform="translate(-93.716 -53.461)" fill="#6c63ff" opacity="0.1"/>
    <path id="Caminho_2" data-name="Caminho 2" d="M290.193,577.619,80.041,576.593,59.16,527.617,133,522.257l-12.869-53.7,146.04-18.929L126.323,401.015l12.353-2.935,224.869,36.685-12.384,83.8-17.7,46.054Z" transform="translate(-22.837 -153.666)" fill="#6c63ff"/>
    <path id="Caminho_3" data-name="Caminho 3" d="M187,698.714s12.893-2.063,20.63,7.048c0,0-5.673,4.47-17.879-1.719Z" transform="translate(-126.573 -296.299)" fill="#6c63ff"/>
    <path id="Caminho_4" data-name="Caminho 4" d="M181.47,698.51s-8.227,10.124-4.175,21.4c0,0,6.7-2.683,7.435-16.35Z" transform="translate(-122.393 -296.298)" fill="#6c63ff"/>
    <path id="Caminho_5" data-name="Caminho 5" d="M172.76,669.341s5.157-9.461,25.787,3.782c0,0-2.751,6.361-11.862,5.845S175.167,674.327,172.76,669.341Z" transform="translate(-121.076 -283.774)" fill="#6c63ff"/>
    <path id="Caminho_6" data-name="Caminho 6" d="M163.209,670.284s-10.7-1.228-11.739,23.27c0,0,6.784,1.406,11.6-6.342S165.917,675.116,163.209,670.284Z" transform="translate(-112.857 -285.398)" fill="#6c63ff"/>
    <path id="Caminho_7" data-name="Caminho 7" d="M160.44,632.755s6.017-16.676,27.85-4.814c0,0-4.985,15.3-25.615,10.487Z" transform="translate(-116.32 -267.412)" fill="#6c63ff"/>
    <path id="Caminho_8" data-name="Caminho 8" d="M149.52,592.915s11.346-16.848,31.46-1.228c0,0-7.048,15.816-29.741,7.22Z" transform="translate(-112.104 -252.499)" fill="#6c63ff"/>
    <path id="Caminho_9" data-name="Caminho 9" d="M145.6,554.895s13.237-15.478,33.155,0c0,0-12.55,13.581-33.155,3.954Z" transform="translate(-110.591 -238.203)" fill="#6c63ff"/>
    <path id="Caminho_10" data-name="Caminho 10" d="M142.24,517.01s13.409-16.16,32.492-.86c0,0-15.128,14.269-32.492,4.642Z" transform="translate(-109.294 -223.361)" fill="#6c63ff"/>
    <path id="Caminho_11" data-name="Caminho 11" d="M144.2,481.074s14.121-20.8,31.976-6.7c0,0-15.128,17.879-31.976,10.659Z" transform="translate(-110.051 -207.882)" fill="#6c63ff"/>
    <path id="Caminho_12" data-name="Caminho 12" d="M149.52,442.672s14.956-20.63,32.32-4.814c0,0-17.707,17.879-32.32,8.6Z" transform="translate(-112.104 -193.377)" fill="#6c63ff"/>
    <path id="Caminho_13" data-name="Caminho 13" d="M157.154,406.183s17.707-19.389,33.155-11.666c0,0-18.45,20.593-33.928,16.811Z" transform="translate(-114.752 -178.247)" fill="#6c63ff"/>
    <path id="Caminho_14" data-name="Caminho 14" d="M166.809,370.716s20.433-23.749,32.32-15.816c0,0-15.055,18.419-33.769,20.261Z" transform="translate(-118.219 -163.03)" fill="#6c63ff"/>
    <path id="Caminho_15" data-name="Caminho 15" d="M180.761,333.783s17.885-19.389,30.951-14.576c0,0-15.3,20.114-33.351,20.63Z" transform="translate(-123.237 -149.581)" fill="#6c63ff"/>
    <path id="Caminho_16" data-name="Caminho 16" d="M194.9,297.788s19.77-18.567,28.366-15.3c0,0-14.269,20.63-29.225,19.426Z" transform="translate(-129.29 -135.554)" fill="#6c63ff"/>
    <path id="Caminho_17" data-name="Caminho 17" d="M208.32,261.684s17.019-22.183,26.309-20.464c0,0-10.321,19.776-26.309,22.717Z" transform="translate(-134.803 -119.736)" fill="#6c63ff"/>
    <path id="Caminho_18" data-name="Caminho 18" d="M221.91,219.394s15.042-17,23.171-16.964c0,0-11.874,22.717-23.792,22.508Z" transform="translate(-139.809 -104.799)" fill="#6c63ff"/>
    <path id="Caminho_19" data-name="Caminho 19" d="M229.418,178.134l14.533-35.414s.724,32.013-16.381,41.984Z" transform="translate(-142.234 -81.749)" fill="#6c63ff"/>
    <path id="Caminho_20" data-name="Caminho 20" d="M240.128,116.682s2.407-29.575.86-31.982c0,0,10.388,24.59-.958,45.047Z" transform="translate(-147.043 -59.352)" fill="#6c63ff"/>
    <path id="Caminho_21" data-name="Caminho 21" d="M143.913,636.632s-15.067-9.339-24.823,13.508c0,0,13.409,8.9,26.6-7.681Z" transform="translate(-100.358 -271.682)" fill="#6c63ff"/>
    <path id="Caminho_22" data-name="Caminho 22" d="M131.475,595.4s-18.481-8.43-27.445,15.423c0,0,14.275,9.824,29.127-9.394Z" transform="translate(-94.544 -255.937)" fill="#6c63ff"/>
    <path id="Caminho_23" data-name="Caminho 23" d="M123.355,557.2s-13.237-15.478-33.155,0c0,0,12.55,13.581,33.155,3.954Z" transform="translate(-89.205 -239.095)" fill="#6c63ff"/>
    <path id="Caminho_24" data-name="Caminho 24" d="M121.072,517.01s-13.409-16.16-32.492-.86c0,0,15.128,14.269,32.492,4.642Z" transform="translate(-88.58 -223.361)" fill="#6c63ff"/>
    <path id="Caminho_25" data-name="Caminho 25" d="M125.431,479.407s-9.406-23.3-29.851-13.28c0,0,11.052,20.66,29.016,17.148Z" transform="translate(-91.282 -205.626)" fill="#6c63ff"/>
    <path id="Caminho_26" data-name="Caminho 26" d="M132.535,439.437s-9.351-23.706-30.085-12.715c0,0,12.7,21.729,29.164,16.375Z" transform="translate(-93.934 -190.259)" fill="#6c63ff"/>
    <path id="Caminho_27" data-name="Caminho 27" d="M147.765,397.047s-3.684-25.99-20.875-28.317c0,0,3.647,27.408,18.56,33Z" transform="translate(-103.369 -168.995)" fill="#6c63ff"/>
    <path id="Caminho_28" data-name="Caminho 28" d="M158.59,361.386s-1.437-31.313-15.65-32.406c0,0,.479,23.767,14.048,36.839Z" transform="translate(-109.564 -153.65)" fill="#6c63ff"/>
    <path id="Caminho_29" data-name="Caminho 29" d="M173.475,323.629s-4.236-26.039-17.805-29.219c0,0,1.682,25.216,16.461,35.611Z" transform="translate(-114.478 -140.305)" fill="#6c63ff"/>
    <path id="Caminho_30" data-name="Caminho 30" d="M192.018,288.44s-.141-27.125-8.43-31.11c0,0-5.139,24.559,6.029,34.573Z" transform="translate(-124.8 -125.992)" fill="#6c63ff"/>
    <path id="Caminho_31" data-name="Caminho 31" d="M203.011,254.075s-1.16-27.93-9.744-31.865c0,0-2.935,22.1,8.461,33.695Z" transform="translate(-128.861 -112.434)" fill="#6c63ff"/>
    <path id="Caminho_32" data-name="Caminho 32" d="M219.108,216.056s-.049-22.717-6.177-28.046c0,0-6.091,24.884,2.978,32.614Z" transform="translate(-135.81 -99.232)" fill="#6c63ff"/>
    <path id="Caminho_33" data-name="Caminho 33" d="M224.23,174.809,218.268,137s-8.1,30.981,6.244,44.636Z" transform="translate(-137.763 -79.541)" fill="#6c63ff"/>
    <path id="Caminho_34" data-name="Caminho 34" d="M221.874,119.613s-15.3-25.419-14.987-28.243c0,0,1.627,26.64,20.875,39.908Z" transform="translate(-134.248 -61.927)" fill="#6c63ff"/>
    <path id="Caminho_35" data-name="Caminho 35" d="M221.033,100.6S206.593,64.5,200.06,61.58c0,0,20.63,10.487,22.177,37.993Z" transform="translate(-131.614 -50.427)" fill="#6c63ff"/>
    <path id="Caminho_36" data-name="Caminho 36" d="M220.549,193.866l-.989-.3c12.187-39.743,15.227-65.081,8.565-71.436l.706-.749C235.9,128.085,233.031,153.147,220.549,193.866Z" transform="translate(-139.141 -73.512)" fill="#444053"/>
    <path id="Caminho_37" data-name="Caminho 37" d="M165.591,330.668l-1.461-.522c1.3-3.641,2.689-7.337,4.15-10.978,12.722-31.706,23.552-61.2,30.5-83.844l1.271-.614c-6.956,22.686-17.6,53.311-30.33,85.06C168.262,323.344,166.874,327.021,165.591,330.668Z" transform="translate(-117.744 -117.26)" fill="#444053"/>
    <path id="Caminho_38" data-name="Caminho 38" d="M186.965,607.578c-.2-.215-19.948-22.459-33.72-60.434a223.6,223.6,0,0,1-13.3-69.244c-.946-29.551,5.256-62.546,15.877-92.52l1.154,1.351C133.125,454,142.6,511.65,155.167,546.364c13.624,37.631,33.155,59.629,33.345,59.85Z" transform="translate(-108.37 -175.422)" fill="#444053"/>
    <path id="Caminho_39" data-name="Caminho 39" d="M637.843,670.36s-13.919,16.989-2.867,42.671l-111.13,48.2-10.665,2.235-4.912-21.489,3.285-27.119V700.033Z" transform="translate(-250.591 -285.431)" fill="#d5d6db"/>
    <path id="Caminho_40" data-name="Caminho 40" d="M59.16,591.43l153.813-28.04,203.809,32.467L290.193,641.432Z" transform="translate(-22.837 -217.479)" fill="#6c63ff"/>
    <path id="Caminho_41" data-name="Caminho 41" d="M59.16,591.43l153.813-28.04,203.809,32.467L290.193,641.432Z" transform="translate(-22.837 -217.479)" fill="#6c63ff"/>
    <path id="Caminho_42" data-name="Caminho 42" d="M144.1,652.47s-14.385,27.254,2.192,52.427l228.092,49.425s-14.158-21.71.731-51.844Z" transform="translate(-107.777 -278.525)" fill="#6c63ff"/>
    <path id="Caminho_43" data-name="Caminho 43" d="M144.1,652.47s-14.385,27.254,2.192,52.427l228.092,49.425s-14.158-21.71.731-51.844Z" transform="translate(-107.777 -278.525)" opacity="0.1"/>
    <path id="Caminho_44" data-name="Caminho 44" d="M156.513,667.86s-8.221,19.942,0,32.848" transform="translate(-113.393 -284.466)" opacity="0.1"/>
    <path id="Caminho_45" data-name="Caminho 45" d="M379.4,784.2,506.74,729.86s7.122,1.535,2.517,6.754-127.4,52.8-127.4,52.8L151.31,734.772Z" transform="translate(-112.795 -308.4)" fill="#6c63ff"/>
    <path id="Caminho_46" data-name="Caminho 46" d="M379.4,784.2,506.74,729.86s7.122,1.535,2.517,6.754-127.4,52.8-127.4,52.8L151.31,734.772Z" transform="translate(-112.795 -308.4)" opacity="0.1"/>
    <path id="Caminho_47" data-name="Caminho 47" d="M502.379,742.86s-12.279,14.735,0,36.839" transform="translate(-246.21 -313.418)" opacity="0.1"/>
    <rect id="Retângulo_2" data-name="Retângulo 2" width="58.064" height="0.614" transform="translate(260.541 447.568) rotate(-18.45)" opacity="0.1"/>
    <rect id="Retângulo_3" data-name="Retângulo 3" width="70.748" height="0.614" transform="translate(260.52 452.511) rotate(-20.82)" opacity="0.1"/>
    <rect id="Retângulo_4" data-name="Retângulo 4" width="82.003" height="0.614" transform="translate(260.89 458.337) rotate(-22.26)" opacity="0.1"/>
    <rect id="Retângulo_5" data-name="Retângulo 5" width="94.393" height="0.614" transform="translate(261.775 463.475) rotate(-24.31)" opacity="0.1"/>
    <rect id="Retângulo_6" data-name="Retângulo 6" width="103.24" height="0.614" transform="matrix(0.916, -0.401, 0.401, 0.916, 262.457, 465.976)" opacity="0.1"/>
    <rect id="Retângulo_7" data-name="Retângulo 7" width="123.544" height="0.614" transform="translate(263.885 470.175) rotate(-23.36)" opacity="0.1"/>
    <path id="Caminho_48" data-name="Caminho 48" d="M152.23,599.657,260.29,576.94l65.83,12.586-88.548,28.55Z" transform="translate(-58.765 -222.71)" fill="#fff" opacity="0.3"/>
    <path id="Caminho_49" data-name="Caminho 49" d="M650.608,659.69s5.587,2.253,2.309,5.735S524,705.265,524,705.265Z" transform="translate(-256.663 -281.312)" fill="#6c63ff"/>
    <path id="Caminho_50" data-name="Caminho 50" d="M737.137,574.18s-13.913,16.983-2.861,42.671l-111.13,48.2L612.482,667.3l-4.912-21.489,3.334-27.113v-14.84Z" transform="translate(-288.923 -248.303)" fill="#d5d6db"/>
    <path id="Caminho_51" data-name="Caminho 51" d="M158.46,495.244,312.267,467.21l203.815,32.467L389.493,545.252Z" transform="translate(-61.169 -180.352)" fill="#3a3768"/>
    <path id="Caminho_52" data-name="Caminho 52" d="M243.357,556.29s-14.392,27.254,2.186,52.427l228.092,49.425s-14.152-21.729.755-51.85Z" transform="translate(-146.091 -241.397)" fill="#3a3768"/>
    <path id="Caminho_53" data-name="Caminho 53" d="M243.357,556.29s-14.392,27.254,2.186,52.427l228.092,49.425s-14.152-21.729.755-51.85l-72.13-15.613Z" transform="translate(-146.091 -241.397)" opacity="0.1"/>
    <path id="Caminho_54" data-name="Caminho 54" d="M255.8,571.68s-8.215,19.936,0,32.848" transform="translate(-151.723 -247.338)" opacity="0.1"/>
    <path id="Caminho_55" data-name="Caminho 55" d="M478.692,688.017,606.037,633.68s7.116,1.535,2.511,6.754-127.4,52.8-127.4,52.8L250.6,638.592Z" transform="translate(-151.124 -271.272)" fill="#3a3768"/>
    <path id="Caminho_56" data-name="Caminho 56" d="M478.692,688.017,606.037,633.68s7.116,1.535,2.511,6.754-127.4,52.8-127.4,52.8L250.6,638.592Z" transform="translate(-151.124 -271.272)" opacity="0.1"/>
    <path id="Caminho_57" data-name="Caminho 57" d="M601.669,646.68s-12.279,14.735,0,36.839" transform="translate(-284.538 -276.29)" opacity="0.1"/>
    <rect id="Retângulo_8" data-name="Retângulo 8" width="58.064" height="0.614" transform="translate(321.507 388.522) rotate(-18.45)" opacity="0.1"/>
    <rect id="Retângulo_9" data-name="Retângulo 9" width="70.748" height="0.614" transform="translate(321.494 393.462) rotate(-20.82)" opacity="0.1"/>
    <rect id="Retângulo_10" data-name="Retângulo 10" width="82.003" height="0.614" transform="translate(321.854 399.281) rotate(-22.26)" opacity="0.1"/>
    <rect id="Retângulo_11" data-name="Retângulo 11" width="94.393" height="0.614" transform="translate(322.747 404.42) rotate(-24.31)" opacity="0.1"/>
    <rect id="Retângulo_12" data-name="Retângulo 12" width="103.24" height="0.614" transform="matrix(0.916, -0.401, 0.401, 0.916, 323.421, 406.912)" opacity="0.1"/>
    <rect id="Retângulo_13" data-name="Retângulo 13" width="123.544" height="0.614" transform="translate(324.853 411.111) rotate(-23.36)" opacity="0.1"/>
    <path id="Caminho_58" data-name="Caminho 58" d="M251.53,503.477,359.59,480.76l65.83,12.587L336.873,521.9Z" transform="translate(-97.097 -185.582)" fill="#fff" opacity="0.45"/>
    <path id="Caminho_59" data-name="Caminho 59" d="M749.919,563.51s5.581,2.253,2.309,5.728-128.9,39.841-128.9,39.841Z" transform="translate(-295.007 -244.185)" fill="#3a3768"/>
    <path id="Caminho_60" data-name="Caminho 60" d="M746.549,464.15s-13.919,30.5-2.867,56.179l-111.13,34.69-10.64,2.253L617,535.783l3.285-27.119v-14.84Z" transform="translate(-292.563 -205.829)" fill="#d5d6db"/>
    <path id="Caminho_61" data-name="Caminho 61" d="M167.89,385.22,321.7,357.18l203.815,32.467-126.6,45.575Z" transform="translate(-64.81 -137.877)" fill="#6c63ff"/>
    <path id="Caminho_62" data-name="Caminho 62" d="M252.819,446.26s-14.41,27.254,2.167,52.427l228.092,49.425s-14.158-21.729.749-51.844Z" transform="translate(-149.738 -198.923)" fill="#6c63ff"/>
    <path id="Caminho_63" data-name="Caminho 63" d="M252.819,446.26s-14.41,27.254,2.167,52.427l228.092,49.425s-14.158-21.729.749-51.844Z" transform="translate(-149.738 -198.923)" opacity="0.1"/>
    <path id="Caminho_64" data-name="Caminho 64" d="M265.243,461.65s-8.221,19.942,0,32.848" transform="translate(-155.366 -204.864)" opacity="0.1"/>
    <path id="Caminho_65" data-name="Caminho 65" d="M488.132,581.075,615.47,540.246s7.122,1.535,2.517,6.754-127.4,39.294-127.4,39.294L260.04,531.65Z" transform="translate(-154.768 -231.886)" fill="#6c63ff"/>
    <path id="Caminho_66" data-name="Caminho 66" d="M488.132,581.075,615.47,540.246s7.122,1.535,2.517,6.754-127.4,39.294-127.4,39.294L260.04,531.65Z" transform="translate(-154.768 -231.886)" opacity="0.1"/>
    <path id="Caminho_67" data-name="Caminho 67" d="M611.109,536.65s-12.28,14.735,0,36.839" transform="translate(-288.182 -233.816)" opacity="0.1"/>
    <rect id="Retângulo_14" data-name="Retângulo 14" width="58.064" height="0.614" transform="translate(327.304 320.965) rotate(-18.45)" opacity="0.1"/>
    <rect id="Retângulo_15" data-name="Retângulo 15" width="70.748" height="0.614" transform="translate(327.288 325.909) rotate(-20.82)" opacity="0.1"/>
    <rect id="Retângulo_16" data-name="Retângulo 16" width="82.003" height="0.614" transform="translate(327.642 331.73) rotate(-22.26)" opacity="0.1"/>
    <rect id="Retângulo_17" data-name="Retângulo 17" width="94.393" height="0.614" transform="translate(328.544 336.864) rotate(-24.31)" opacity="0.1"/>
    <rect id="Retângulo_18" data-name="Retângulo 18" width="103.24" height="0.614" transform="matrix(0.916, -0.401, 0.401, 0.916, 329.22, 339.362)" opacity="0.1"/>
    <rect id="Retângulo_19" data-name="Retângulo 19" width="123.544" height="0.614" transform="translate(330.65 343.565) rotate(-23.36)" opacity="0.1"/>
    <path id="Caminho_68" data-name="Caminho 68" d="M260.96,393.447,369.02,370.73l65.83,12.586L346.3,411.866Z" transform="translate(-100.737 -143.108)" fill="#fff" opacity="0.3"/>
    <path id="Caminho_69" data-name="Caminho 69" d="M759.349,453.48s5.587,2.253,2.309,5.734-128.9,39.841-128.9,39.841Z" transform="translate(-298.647 -201.71)" fill="#6c63ff"/>
    <path id="Caminho_70" data-name="Caminho 70" d="M385.906,149.9s-23.331-1.406-20.605,14.963a3.993,3.993,0,0,0,2.075,4.206s.043-1.228,2.394-.8a10.469,10.469,0,0,0,2.542.123,5.292,5.292,0,0,0,3.1-1.277h0s6.563-2.714,9.118-13.446c0,0,1.891-2.339,1.842-2.941l-3.954,1.682s1.345,2.843.289,5.207c0,0-.129-5.1-.89-4.985-.154,0-2.045.989-2.045.989s2.315,4.955.565,8.553c0,0,.663-6.1-1.289-8.2l-2.775,1.621s2.708,5.114.872,9.289c0,0,.473-6.4-1.455-8.9l-2.517,1.965s2.548,5.041.995,8.5c0,0-.2-7.454-1.535-8.019a15.173,15.173,0,0,0-2.536,2.738s1.744,3.684.657,5.593c0,0-.657-4.967-1.228-4.992,0,0-2.192,3.291-2.419,5.526a11.948,11.948,0,0,1,1.885-5.857,6.576,6.576,0,0,0-3.352,1.738s.338-2.327,3.9-2.53c0,0,1.811-2.5,2.3-2.646,0,0-3.543-.3-5.685.651,0,0,1.891-2.192,6.33-1.228l2.456-2.026s-4.654-.614-6.631.068c0,0,2.278-1.94,7.3-.528l2.708-1.615a24.6,24.6,0,0,0-6.336-.546s2.493-1.345,7.128.111l1.928-.866s-2.9-.571-3.758-.663-.9-.325-.9-.325a10.137,10.137,0,0,1,5.464.614S385.986,150.159,385.906,149.9Z" transform="translate(-195.315 -84.51)" fill="#6c63ff"/>
    <path id="Caminho_71" data-name="Caminho 71" d="M920.506,259.481s-23.331-1.406-20.6,14.963a3.993,3.993,0,0,0,2.075,4.206s.043-1.228,2.395-.8a10.818,10.818,0,0,0,2.542.123,5.275,5.275,0,0,0,3.07-1.277h0s6.57-2.714,9.118-13.446c0,0,1.891-2.339,1.842-2.941L917,261.986s1.345,2.843.288,5.207c0,0-.129-5.1-.884-4.985-.154,0-2.051.988-2.051.988s2.315,4.955.571,8.553c0,0,.663-6.1-1.3-8.2l-2.775,1.621s2.708,5.114.872,9.289c0,0,.473-6.4-1.455-8.9l-2.511,1.965s2.542,5.041.989,8.5c0,0-.2-7.454-1.535-8.019a15.4,15.4,0,0,0-2.536,2.738s1.744,3.684.663,5.593c0,0-.663-4.967-1.228-4.992,0,0-2.192,3.291-2.419,5.526a11.909,11.909,0,0,1,1.891-5.857,6.606,6.606,0,0,0-3.358,1.738s.344-2.327,3.9-2.53c0,0,1.811-2.5,2.3-2.652,0,0-3.537-.295-5.685.657,0,0,1.891-2.192,6.33-1.228l2.456-2.026s-4.66-.614-6.631.068c0,0,2.272-1.94,7.3-.528l2.7-1.615a24.6,24.6,0,0,0-6.336-.546s2.493-1.345,7.128.111l1.934-.866s-2.91-.571-3.764-.663-.9-.325-.9-.325a10.063,10.063,0,0,1,5.464.614S920.579,259.739,920.506,259.481Z" transform="translate(-401.684 -126.81)" fill="#6c63ff" opacity="0.1"/>
    <path id="Caminho_72" data-name="Caminho 72" d="M446.8,306.09s-10.167-21.078-23.11-10.689a3.988,3.988,0,0,0-2.659,3.862s1.074-.559,1.842,1.7a10.88,10.88,0,0,0,1.13,2.272,5.3,5.3,0,0,0,2.634,2.087h0s5.569,4.408,16.184,1.4c0,0,2.966.51,3.451.153l-3.389-2.622s-1.842,2.56-4.408,2.787c0,0,4.4-2.6,3.923-3.2-.1-.123-1.842-1.308-1.842-1.308s-3.2,4.439-7.19,4.666c0,0,5.649-2.395,6.52-5.127l-2.763-1.633s-3.15,4.863-7.687,5.292c0,0,5.82-2.708,7.055-5.606l-2.935-1.228s-3.162,4.678-6.944,5.016c0,0,6.41-3.813,6.25-5.256a15.562,15.562,0,0,0-3.629-.878s-2.345,3.309-4.556,3.309c0,0,4.009-3,3.764-3.487,0,0-3.942-.307-6.017.614a11.954,11.954,0,0,1,6.035-1.228,6.612,6.612,0,0,0-3.156-2.081s2.2-.835,4.108,2.167c0,0,3.07.362,3.432.712,0,0-1.467-3.23-3.34-4.636,0,0,2.837.571,4.132,4.912l2.978,1.179s-1.713-4.372-3.291-5.753c0,0,2.8,1.038,4.022,6.14l2.726,1.572a24.294,24.294,0,0,0-2.609-5.8s2.388,1.523,3.377,6.275l1.7,1.265s-.921-2.818-1.228-3.6-.153-.946-.153-.946a10.075,10.075,0,0,1,2.137,5.065S446.575,306.274,446.8,306.09Z" transform="translate(-216.911 -139.577)" fill="#6c63ff" opacity="0.1"/>
    <path id="Caminho_73" data-name="Caminho 73" d="M830.576,202.47s-10.161-21.078-23.11-10.689a4,4,0,0,0-2.659,3.862s1.081-.553,1.842,1.7a10.653,10.653,0,0,0,1.136,2.278,5.268,5.268,0,0,0,2.628,2.081h0s5.575,4.408,16.184,1.406c0,0,2.966.5,3.457.147l-3.371-2.628s-1.842,2.566-4.4,2.794c0,0,4.39-2.6,3.917-3.2-.1-.123-1.842-1.308-1.842-1.308s-3.193,4.439-7.19,4.666c0,0,5.655-2.395,6.527-5.121l-2.806-1.621s-3.144,4.857-7.687,5.292c0,0,5.82-2.714,7.061-5.612l-2.941-1.228s-3.162,4.685-6.938,5.016c0,0,6.4-3.813,6.244-5.249a15.187,15.187,0,0,0-3.622-.878s-2.345,3.3-4.562,3.3c0,0,4.015-3,3.77-3.487,0,0-3.942-.307-6.023.614a11.948,11.948,0,0,1,6.035-1.228,6.575,6.575,0,0,0-3.15-2.081s2.2-.835,4.107,2.167c0,0,3.07.368,3.432.718,0,0-1.467-3.236-3.346-4.642,0,0,2.837.577,4.132,4.943l2.984,1.179s-1.713-4.378-3.291-5.759c0,0,2.8,1.038,4.015,6.14l2.732,1.572a24.52,24.52,0,0,0-2.616-5.8s2.395,1.523,3.377,6.275l1.7,1.265s-.915-2.818-1.228-3.6-.154-.939-.154-.939a10.1,10.1,0,0,1,2.13,5.065S830.385,202.666,830.576,202.47Z" transform="translate(-365.06 -99.577)" fill="#6c63ff" opacity="0.1"/>
    <path id="Caminho_74" data-name="Caminho 74" d="M883.454,372.276s-10.161-21.084-23.128-10.7a4,4,0,0,0-2.659,3.862s1.081-.553,1.842,1.7a10.644,10.644,0,0,0,1.13,2.278,5.268,5.268,0,0,0,2.628,2.081h0s5.575,4.414,16.191,1.406c0,0,2.959.51,3.451.147l-3.389-2.622s-1.842,2.566-4.408,2.794c0,0,4.39-2.6,3.917-3.2-.1-.123-1.842-1.308-1.842-1.308s-3.193,4.439-7.19,4.672c0,0,5.655-2.4,6.527-5.127l-2.769-1.633s-3.144,4.863-7.687,5.292c0,0,5.821-2.714,7.061-5.612l-2.941-1.228s-3.162,4.678-6.938,5.016c0,0,6.41-3.813,6.25-5.256a15.253,15.253,0,0,0-3.629-.878s-2.345,3.3-4.562,3.3c0,0,4.015-3,3.77-3.487,0,0-3.942-.307-6.023.614a11.984,11.984,0,0,1,6.042-1.228,6.564,6.564,0,0,0-3.156-2.081s2.2-.841,4.108,2.167c0,0,3.07.362,3.432.712a14.481,14.481,0,0,0-3.34-4.642s2.837.577,4.132,4.943l2.978,1.179s-1.713-4.378-3.291-5.753c0,0,2.8,1.031,4.015,6.14l2.732,1.566a24.518,24.518,0,0,0-2.615-5.8s2.395,1.523,3.383,6.281l1.7,1.228s-.921-2.818-1.228-3.6-.153-.939-.153-.939a10.039,10.039,0,0,1,2.13,5.065S883.264,372.461,883.454,372.276Z" transform="translate(-385.465 -165.124)" fill="#6c63ff" opacity="0.1"/>
    <ellipse id="Elipse_1" data-name="Elipse 1" cx="14.115" cy="1.578" rx="14.115" ry="1.578" transform="translate(109.877 478.302)" fill="#6c63ff" opacity="0.1"/>
    <ellipse id="Elipse_2" data-name="Elipse 2" cx="14.115" cy="1.578" rx="14.115" ry="1.578" transform="translate(17.345 451.484)" fill="#6c63ff" opacity="0.1"/>
    <ellipse id="Elipse_3" data-name="Elipse 3" cx="14.115" cy="1.578" rx="14.115" ry="1.578" transform="translate(180.411 496.114)" fill="#6c63ff" opacity="0.1"/>
    <ellipse id="Elipse_4" data-name="Elipse 4" cx="14.115" cy="1.578" rx="14.115" ry="1.578" transform="translate(541.858 457.316)" fill="#6c63ff" opacity="0.1"/>
    <ellipse id="Elipse_5" data-name="Elipse 5" cx="14.115" cy="1.578" rx="14.115" ry="1.578" transform="translate(424.398 449.66)" fill="#6c63ff" opacity="0.1"/>
    <ellipse id="Elipse_6" data-name="Elipse 6" cx="16.694" cy="2.867" rx="16.694" ry="2.867" transform="translate(345.834 484.423)" fill="#6c63ff" opacity="0.1"/>
    <path id="Caminho_75" data-name="Caminho 75" d="M681.94,790.14S658.695,802.149,670.7,816.3a4.493,4.493,0,0,0,4.4,2.855s-.651-1.191,1.842-2.143a11.973,11.973,0,0,0,2.511-1.332,5.9,5.9,0,0,0,2.247-3h0s4.752-6.361,1.068-18.131c0,0,.479-3.328.061-3.868l-2.824,3.874s2.916,1.959,3.254,4.838c0,0-3.07-4.832-3.684-4.3-.135.111-1.4,2.118-1.4,2.118s5.059,3.432,5.434,7.89c0,0-2.849-6.244-5.925-7.134l-1.762,3.144s5.526,3.365,6.14,8.424c0,0-3.211-6.416-6.49-7.712l-1.3,3.322s5.329,3.389,5.82,7.6c0,0-4.457-7.042-6.06-6.821a17.024,17.024,0,0,0-.872,4.083s3.764,2.517,3.831,4.992c0,0-3.475-4.39-4.009-4.1,0,0-.221,4.414.847,6.711a13.248,13.248,0,0,1-1.541-6.711,7.368,7.368,0,0,0-2.229,3.586s-1-2.425,2.3-4.66c0,0,.313-3.432.694-3.856,0,0-3.567,1.744-5.084,3.88,0,0,.559-3.187,5.4-4.771l1.228-3.365s-4.838,2.051-6.33,3.856c0,0,1.074-3.162,6.711-4.678l1.67-3.07a28.189,28.189,0,0,0-6.4,3.07s1.627-2.72,6.913-3.972l1.357-1.934s-3.119,1.111-3.991,1.51-1.044.2-1.044.2a11.291,11.291,0,0,1,5.593-2.542S682.155,790.349,681.94,790.14Z" transform="translate(-311.964 -331.669)" fill="#6c63ff"/>
    <path id="Caminho_76" data-name="Caminho 76" d="M672.611,275.07c-4.015-10.91-26.119-11.936-35.709-9.154-6.815,1.983-21.182,4.218-28.857,5.342l-.5-.473c.995-.295,1.019-1.019.9-2.094a32.769,32.769,0,0,1,.061-4.249c4.7,1.461,8.89-2,8.89-2h0c5.526-2.456,4.04-12.967,5.1-15.841.792-2.149,1.645-14.809,2.026-21.121h.08l.043-2.118c.055-.915.08-1.449.08-1.449s.54-15.435,1.6-18.56c.982-2.873,1.781-17.351,1.9-19.647v-.3l-.08-1.338c.055-.976.08-2.063.074-3.2,0-5.249-.546-11.862-.614-12.93v-.559c.043-2.241-.239-13.464-9.787-17.707-3.518-1.572-7.748-3.444-11.844-5.268-1.056-9.118-3.469-18.186-3.26-27.371,0-1.381.123-2.763.258-4.138,0,.4-.043.8-.049,1.228V114.8c.362-11.487,4.7-23.036,4.3-34.278-.037,1.1-.117,2.2-.221,3.309a35.688,35.688,0,0,0-1.179-11.291,6.681,6.681,0,0,0-1.928-3.5,7.939,7.939,0,0,0-3.365-1.332,67.663,67.663,0,0,0-8.835-1.645A13.643,13.643,0,0,0,589.7,62.2c-6.226-8.547-15.448-16.577-26.352-18.419-5.471-.921-11.764-.153-15.484,3.758a11.605,11.605,0,0,0-1.093,1.105c-2,2.388-2.861,5.526-4.912,7.908-.135.16-.289.307-.436.46-4.015,3.592-10.272,4.341-14.735,7.564a17.691,17.691,0,0,0-2.2,1.922,37.376,37.376,0,0,0-4.814,5.851c-2.008,2.824-4.071,5.765-4.709,9.136-1.283,6.754,3.316,13.158,4.169,19.954,1.9,15.208-14.926,28.7-11.739,43.709a20.015,20.015,0,0,0,5.415,9.719c-6.563,5.943-12.151,11.708-12.151,11.708v.344h-1.038l.1,1.228h-.1l.571,6.662-.571,9.7v.915h.037c.19,3.555.945,16.338,1.842,19.033,1.056,3.125,1.59,18.56,1.59,18.56s1.167,21.815,2.235,24.7-.448,13.366,5.1,15.841h0a11.665,11.665,0,0,0,5.569,2.309c-.282,2.3-.1,3.96.81,4.482a2.677,2.677,0,0,0,1.289.368,13.692,13.692,0,0,0-1,1.75,26.008,26.008,0,0,1-6.434-1.516c-5.956-2.456-25.719-7.982-31.46-4.1s-19.555,7.411-13.176,23.055,9.351,16.037,9.351,16.037a22.717,22.717,0,0,1,5.1,5.127c1.916,2.88,19.764,9.467,24.227,9.467a43.707,43.707,0,0,1,5.679.282s-4.844,4.249-4.2,6.717-1.474,22.226-1.474,22.226,4.912,4.949,7.012-1.541l.074.1c.393.534,2.517,2.947,6.514-.1a36.521,36.521,0,0,1,5.194-3.291l19.352-2.738a54.782,54.782,0,0,1,6.06-.043c3.07.252,6.084-1.566,7.982-2.972,4.009,1.523,8.516,3.187,10.659,3.794,4.347,1.228,24.326,6.588,29,4.912a6.49,6.49,0,0,0,2.517-1.793l4.458.141-2.088.418s4.064.068,9.59.141l-.233.135,6.932-.061c10.143.092,21.538.123,23.036-.215,2.345-.522,14.533-.154,18.125,0h1s13.391-2.671,7.865-16.258c-4.249-10.438-17.308-13.471-23.1-14.306,1.633-.325,3.039-.577,3.972-.724,4.046-.614,11.905-4.3,12.544-5.556s7.227-4.912,8.927-6.993S676.645,285.98,672.611,275.07ZM561.7,305.6l-.657.215-.442.147-.847.835c-.675-.454-1.4-.933-2.155-1.424C558.927,305.455,560.3,305.535,561.7,305.6Zm58.518,17.3Z" transform="translate(-233.643 -43.42)" fill="url(#linear-gradient)"/>
    <path id="Caminho_77" data-name="Caminho 77" d="M686.65,317.392s9.394,24.559,14.735,22.1,3.893-12.893,4.912-15.755,2.149-24.559,2.149-24.559.516-15.349,1.535-18.456c.946-2.855,1.713-17.253,1.842-19.518v-.3L710.81,243.1l-5.734-1.431-13.3,4.912L689.935,257.1l-.718,4.107-.307,1.75Z" transform="translate(-319.45 -119.946)" fill="#be6f72"/>
    <path id="Caminho_78" data-name="Caminho 78" d="M691.69,358.3s8.964,7.337,11.666,7.982,4.359,6.367,4.359,6.367" transform="translate(-321.395 -164.968)" opacity="0.1"/>
    <path id="Caminho_79" data-name="Caminho 79" d="M551.173,319.142s-9.394,24.559-14.735,22.1-3.893-12.893-4.912-15.755-2.149-24.559-2.149-24.559-.516-15.349-1.535-18.456c-.945-2.855-1.713-17.253-1.842-19.518v-.3l1.019-17.805,5.735-1.431,13.3,4.912,1.842,10.517.718,4.108.307,1.75Z" transform="translate(-257.435 -120.622)" fill="#be6f72"/>
    <rect id="Retângulo_20" data-name="Retângulo 20" width="20.967" height="32.682" transform="translate(333.941 67.092)" fill="#3e373a"/>
    <rect id="Retângulo_21" data-name="Retângulo 21" width="20.967" height="32.682" transform="translate(333.941 67.092)" opacity="0.1"/>
    <path id="Caminho_80" data-name="Caminho 80" d="M557.795,405.362s-7.165,7.877-4.507,9.308,19.856,28.243,19.856,28.243,56.486,6.956,67.138-3.481,10.438-29.084,10.438-29.084-8.559,1.842-9.492.841-6.06-5.827-6.06-5.827S562.706,400.966,557.795,405.362Z" transform="translate(-267.74 -182.381)" fill="#4b4b5b"/>
    <path id="Caminho_81" data-name="Caminho 81" d="M557.795,405.362s-7.165,7.877-4.507,9.308,19.856,28.243,19.856,28.243,56.486,6.956,67.138-3.481,10.438-29.084,10.438-29.084-8.559,1.842-9.492.841-6.06-5.827-6.06-5.827S562.706,400.966,557.795,405.362Z" transform="translate(-267.74 -182.381)" opacity="0.02"/>
    <path id="Caminho_82" data-name="Caminho 82" d="M649.817,208.891,631.4,223.626l-5.569.405-2.044.147-34.34,2.517-35.611-2.6-5.3-.387-6.754-.491L527.66,209.708a241.826,241.826,0,0,1,18.751-17.934c3.451-2.855,6.711-5.164,9.087-6.072l.405-.141a10.106,10.106,0,0,0,3.893-2.714c6.913-7.128,13.3-24.719,13.3-24.719s30.5-15.755,26.812,4.912,13.71,15.558,13.71,15.558l5.735,2.616,2.266,1.038L627.4,184.9l13.035,5.98C650.664,195.586,649.817,208.891,649.817,208.891Z" transform="translate(-258.076 -85.479)" fill="#be6f72"/>
    <circle id="Elipse_7" data-name="Elipse 7" cx="27.426" cy="27.426" r="27.426" transform="translate(302.512 34.625)" opacity="0.1"/>
    <path id="Caminho_83" data-name="Caminho 83" d="M649.219,249.265H526v-.3l1.019-17.805a241.833,241.833,0,0,1,18.751-17.934l77.361-3.07,3.6-3.794,13.035,5.98c10.235,4.7,9.412,18.008,9.412,18.008S650.576,245.765,649.219,249.265Z" transform="translate(-257.435 -106.316)" opacity="0.1"/>
    <path id="Caminho_84" data-name="Caminho 84" d="M649.219,248.265H526v-.3l1.019-17.805a241.831,241.831,0,0,1,18.751-17.934l77.361-3.07,3.6-3.794,13.035,5.98c10.235,4.7,9.412,18.008,9.412,18.008S650.576,244.765,649.219,248.265Z" transform="translate(-257.435 -105.93)" fill="#e7c7ca"/>
    <path id="Caminho_85" data-name="Caminho 85" d="M588.965,190.547s19.438,24.768,45.33-.51,2.867,56.381,2.867,56.381L581.29,253.05Z" transform="translate(-278.778 -98.141)" opacity="0.1"/>
    <path id="Caminho_86" data-name="Caminho 86" d="M588.965,192.547s19.438,24.768,45.33-.51,2.867,56.381,2.867,56.381L581.29,255.05Z" transform="translate(-278.778 -98.913)" fill="#e7c7ca"/>
    <path id="Caminho_87" data-name="Caminho 87" d="M630.81,202.363l2.057,31.368,2.2,10.438,1.682,7.982s4.3,61.4,3.07,64.467.614,5.526.872,7.159-.258,5.735-.055,7.576,0,2.659-4.7,2-11.26-1.8-11.26-1.8-16.577,1.228-22.306-.817-16.577-2.051-16.577-2.051-16.375.411-21.692-.2-8.19,6.551-11.666,4.5,4.089-21.894,6.545-27.629-3.272-20.261-3.272-20.261l7.368-40.872,1.639-9.265V205.832l.405-.141a10.105,10.105,0,0,0,3.893-2.714l1.842,29.311,57.714,2.051V201.35" transform="translate(-267.293 -104.382)" opacity="0.1"/>
    <path id="Caminho_88" data-name="Caminho 88" d="M630.81,200.363l2.057,31.368,2.2,10.438,1.682,7.982s4.3,61.4,3.07,64.467.614,5.526.872,7.159-.258,5.735-.055,7.576,0,2.659-4.7,2-11.26-1.8-11.26-1.8-16.577,1.228-22.306-.817-16.577-2.051-16.577-2.051-16.375.411-21.692-.2-8.19,6.551-11.666,4.5,4.089-21.894,6.545-27.629-3.272-20.261-3.272-20.261l7.368-40.872,1.639-9.265V203.832l.405-.141a10.105,10.105,0,0,0,3.893-2.714l1.842,29.311,57.714,2.051V199.35" transform="translate(-267.293 -103.61)" fill="#e7c7ca"/>
    <path id="Caminho_89" data-name="Caminho 89" d="M632.047,76.19a6.765,6.765,0,0,0-1.842-3.475,7.54,7.54,0,0,0-3.242-1.326,64.054,64.054,0,0,0-8.522-1.633,13.644,13.644,0,0,0-1.842-3.825c-6.017-8.5-14.92-16.51-25.394-18.321-5.483-.952-11.837-.1-15.349,4.224-1.928,2.376-2.757,5.526-4.7,7.859-3.751,4.531-10.524,5.09-15.251,8.6-2.523,1.842-4.353,4.513-6.14,7.1-1.934,2.806-3.923,5.728-4.537,9.081-1.228,6.7,3.2,13.084,4.015,19.844,1.842,15.122-14.367,28.538-11.3,43.457,1.787,8.7,9.824,14.828,18.137,17.934,2.929,1.1,6.275,2.192,7.644,5,.614,1.228.718,2.646,1.3,3.886,1.94,4.138,8.319,4.3,11.745,1.283s4.507-7.89,4.912-12.439c1.645-19.868-6.312-39.5-5.385-59.414.276-6.023,1.971-12.857,7.368-15.583,7.263-3.684,16,2.456,23.994,1.283a47.6,47.6,0,0,1,2.3,29.047c-1.271,5.3-3.469,10.438-3.629,15.9-.24,8.319,4.249,15.92,8.129,23.276a12.385,12.385,0,0,1,1.639,4.488,10.819,10.819,0,0,1-.878,4.7c-2.192,5.9-5.974,11.377-6.4,17.658a2.855,2.855,0,0,0,.46,2.1,2.64,2.64,0,0,0,1.584.712c6.631,1.136,12.365-4.74,15.6-10.64a49.88,49.88,0,0,0,6.152-21.194c.669-12.5-3.813-24.8-3.536-37.311C629.382,104.237,635.811,89.913,632.047,76.19Z" transform="translate(-261.894 -44.899)" opacity="0.1"/>
    <path id="Caminho_90" data-name="Caminho 90" d="M633.047,75.19a6.765,6.765,0,0,0-1.842-3.475,7.539,7.539,0,0,0-3.242-1.326,64.048,64.048,0,0,0-8.522-1.633,13.642,13.642,0,0,0-1.842-3.825c-6.017-8.5-14.92-16.51-25.394-18.321-5.483-.952-11.837-.1-15.349,4.224-1.928,2.376-2.757,5.526-4.7,7.859-3.751,4.531-10.524,5.09-15.251,8.6-2.523,1.842-4.353,4.513-6.14,7.1-1.934,2.806-3.923,5.728-4.537,9.081-1.228,6.7,3.2,13.084,4.015,19.844,1.842,15.122-14.367,28.538-11.3,43.457,1.787,8.7,9.824,14.827,18.137,17.934,2.929,1.1,6.275,2.192,7.644,5,.614,1.228.718,2.646,1.3,3.886,1.94,4.138,8.319,4.3,11.745,1.283s4.507-7.89,4.912-12.439c1.645-19.868-6.312-39.5-5.385-59.414.276-6.023,1.971-12.857,7.368-15.583,7.263-3.684,16,2.456,23.994,1.283a47.6,47.6,0,0,1,2.3,29.047c-1.271,5.3-3.469,10.438-3.629,15.9-.24,8.319,4.249,15.92,8.129,23.276a12.386,12.386,0,0,1,1.639,4.488,10.819,10.819,0,0,1-.878,4.7c-2.192,5.9-5.974,11.377-6.4,17.658a2.855,2.855,0,0,0,.46,2.1,2.64,2.64,0,0,0,1.584.712c6.631,1.136,12.365-4.74,15.6-10.64a49.879,49.879,0,0,0,6.152-21.194c.669-12.5-3.813-24.8-3.536-37.311C630.382,103.237,636.811,88.913,633.047,75.19Z" transform="translate(-262.28 -44.513)" fill="#3e373a"/>
    <path id="Caminho_91" data-name="Caminho 91" d="M581.79,481.863l24.356.78-3.494-18.063-18.659,1.774Z" transform="translate(-224.585 -179.336)" fill="#c3c7d9"/>
    <path id="Caminho_92" data-name="Caminho 92" d="M722.134,442.492c-1.639,2.045-7.982,5.728-8.6,6.956s-8.184,4.912-12.077,5.526-16.166,3.279-18.419,4.709c-1.615,1.031-14.576,4.3-23.092,6.109a65.536,65.536,0,0,1-6.993,1.259c-3.684.2-44-13.507-44-13.507l7.773-7.982.43-.147c2.2-.743,12.353-4.175,17.99-5.808,6.349-1.842,13.716-9.412,13.716-9.412s10.843-3.684,12.279-4.1-3.684-14.324-3.684-14.324,23.534-3.266,32.743-6.035,30.5-1.744,34.383,9.105S723.8,440.447,722.134,442.492Z" transform="translate(-289.459 -182.777)" fill="#4b4b5b"/>
    <path id="Caminho_93" data-name="Caminho 93" d="M585.939,509.112s-4.7,4.912-9.412,4.507-21.176,1.228-21.176,1.228a33.013,33.013,0,0,0-8.295,4.807c-3.85,3.033-5.894.614-6.275.1l-.068-.1c-2.051,6.453-6.754,1.535-6.754,1.535s2.045-19.647,1.418-22.1,4.046-6.674,4.046-6.674l5.526-1.406,14-3.586,20.059,6.956Z" transform="translate(-260.508 -214.812)" fill="#e7c7ca"/>
    <path id="Caminho_94" data-name="Caminho 94" d="M544.926,493.26l-4.144,28.746-.068-.1c-2.051,6.453-6.754,1.535-6.754,1.535s2.045-19.647,1.418-22.1,4.046-6.674,4.046-6.674Z" transform="translate(-260.508 -217.066)" opacity="0.1"/>
    <path id="Caminho_95" data-name="Caminho 95" d="M599,360.08s10.843,3.684,20.261,0" transform="translate(-285.615 -165.656)" opacity="0.1"/>
    <path id="Caminho_96" data-name="Caminho 96" d="M659.29,371.42s4.5,2.247,7.982,0" transform="translate(-308.888 -170.033)" opacity="0.1"/>
    <path id="Caminho_97" data-name="Caminho 97" d="M659.29,379.451s7.57,1.013,9.007-1.031" transform="translate(-308.888 -172.735)" opacity="0.1"/>
    <path id="Caminho_98" data-name="Caminho 98" d="M655.29,396.048s14.22-1.842,17.75-4.3" transform="translate(-307.344 -177.881)" opacity="0.1"/>
    <path id="Caminho_99" data-name="Caminho 99" d="M584.62,391.75s7.982,4.5,13.919,4.3" transform="translate(-280.064 -177.881)" opacity="0.1"/>
    <path id="Caminho_100" data-name="Caminho 100" d="M659.941,491.558a65.553,65.553,0,0,1-6.993,1.259c-3.684.2-44-13.507-44-13.507l7.773-7.982.43-.147c1.228.866,2.235,1.609,2.953,2.173,3.383,2.665,6.649-.817,7.877-.817s11.868,8.8,11.868,8.8,9.824,2.253,11.463,4.3,7.368,1.639,8.387,3.07A5.477,5.477,0,0,1,659.941,491.558Z" transform="translate(-289.456 -208.543)" opacity="0.1"/>
    <path id="Caminho_101" data-name="Caminho 101" d="M530.935,413.182s-9.934.571-15.663-1.842-24.762-7.982-30.287-4.071-18.831,7.368-12.691,22.926,9.007,15.963,9.007,15.963a22.164,22.164,0,0,1,4.912,5.1c1.842,2.867,19.033,9.412,23.331,9.412s11.868,0,22.508,7.368,20.261,8.19,20.261,8.19,13.507,5.526,17.713,6.754,23.423,6.545,27.93,4.912,7.368-11.874,7.368-11.874,2.045-9.21,1.019-10.64-6.754-1.025-8.387-3.07-11.463-4.3-11.463-4.3-10.616-8.8-11.844-8.8-4.494,3.475-7.877.817a179.7,179.7,0,0,0-21.188-13.508C537.811,432.417,530.935,413.182,530.935,413.182Z" transform="translate(-236.091 -183.349)" fill="#4b4b5b"/>
    <path id="Caminho_102" data-name="Caminho 102" d="M536.27,427.271a11.727,11.727,0,0,1,10.063,2.659c4.912,4.1,21.44,12.316,21.44,12.316" transform="translate(-261.399 -191.501)" opacity="0.1"/>
    <path id="Caminho_103" data-name="Caminho 103" d="M719.95,427s-21.9,3.315-25.99,7.816" transform="translate(-322.271 -191.488)" opacity="0.1"/>
    <path id="Caminho_104" data-name="Caminho 104" d="M741.9,518.119h-.964c-3.463-.123-15.2-.491-17.455,0-2.659.614-37.864,0-37.864,0l6.883-1.431s-2.554-8.952-.933-9.695c0,0-9.21-6.066-2.266-10.161a21.542,21.542,0,0,1,14.428-2.37l17.431-5.906,3.346-1.136s19.647,1.025,24.964,14.533S741.9,518.119,741.9,518.119Z" transform="translate(-319.052 -214.812)" fill="#e7c7ca"/>
    <path id="Caminho_105" data-name="Caminho 105" d="M764.25,518.138h-.964c5.716-4.715,18.646-19.07-19.776-29.532l3.346-1.136S766.5,488.5,771.82,502,764.25,518.138,764.25,518.138Z" transform="translate(-341.399 -214.831)" opacity="0.1"/>
    <circle id="Elipse_8" data-name="Elipse 8" cx="1.074" cy="1.074" r="1.074" transform="translate(385.656 285.244)" fill="#4b4b5b"/>
    <circle id="Elipse_9" data-name="Elipse 9" cx="1.074" cy="1.074" r="1.074" transform="translate(379.412 287.018)" fill="#4b4b5b"/>
    <g id="Grupo_4" data-name="Grupo 4" transform="translate(276.438 38.616)" opacity="0.1">
      <path id="Caminho_106" data-name="Caminho 106" d="M636.761,128.868a47.638,47.638,0,0,0-3.524-19.733c-7.982,1.191-16.725-4.967-23.994-1.283-5.378,2.726-7.067,9.56-7.368,15.583-.074,1.59-.086,3.18-.055,4.771,0-.565,0-1.136.055-1.7.282-6.023,1.971-12.857,7.368-15.583,7.269-3.684,16,2.456,23.994,1.283A47.512,47.512,0,0,1,636.761,128.868Z" transform="translate(-563.135 -106.446)"/>
      <path id="Caminho_107" data-name="Caminho 107" d="M555.3,128.52a20.46,20.46,0,0,0-.08-4.015c-.651-5.4-3.6-10.567-4.138-15.834-.688,6.355,3.358,12.458,4.138,18.9A3.839,3.839,0,0,1,555.3,128.52Z" transform="translate(-543.525 -107.221)"/>
      <path id="Caminho_108" data-name="Caminho 108" d="M582.948,219.387c-.381,4.556-1.455,9.425-4.912,12.445s-9.824,2.855-11.745-1.283c-.614-1.228-.706-2.659-1.3-3.886-1.363-2.812-4.715-3.9-7.644-5-8.319-3.113-16.344-9.21-18.131-17.934a18.84,18.84,0,0,1-.325-2.394,19.352,19.352,0,0,0,.325,5.464c1.787,8.7,9.824,14.821,18.131,17.934,2.929,1.1,6.281,2.192,7.644,5,.614,1.228.718,2.646,1.3,3.886,1.934,4.138,8.313,4.3,11.745,1.283s4.5-7.89,4.912-12.445a70.15,70.15,0,0,0,.19-7.208C583.138,216.643,583.058,218.018,582.948,219.387Z" transform="translate(-538.823 -142.99)"/>
      <path id="Caminho_109" data-name="Caminho 109" d="M687.93,137.733v2.659c.344-11.42,4.531-22.9,4.12-34.082C691.731,116.649,688.163,127.222,687.93,137.733Z" transform="translate(-596.382 -106.31)"/>
      <path id="Caminho_110" data-name="Caminho 110" d="M660.415,215.208a7.916,7.916,0,0,0,.141-2.216,12.279,12.279,0,0,0-1.639-4.488c-3.549-6.754-7.595-13.667-8.074-21.164,0,.319-.043.614-.049.958-.246,8.313,4.243,15.92,8.123,23.276a14.74,14.74,0,0,1,1.5,3.635Z" transform="translate(-582.043 -137.59)"/>
      <path id="Caminho_111" data-name="Caminho 111" d="M678.661,217.488a49.959,49.959,0,0,1-6.2,21.194c-3.242,5.9-8.97,11.776-15.607,10.64a2.609,2.609,0,0,1-1.584-.718,1.535,1.535,0,0,1-.289-.479c-.074.479-.135.964-.172,1.455a2.83,2.83,0,0,0,.461,2.094,2.609,2.609,0,0,0,1.584.718c6.637,1.136,12.365-4.74,15.607-10.64a49.96,49.96,0,0,0,6.2-21.194c.074-1.437.08-2.867.037-4.3C678.685,216.671,678.685,217.077,678.661,217.488Z" transform="translate(-583.582 -148.753)"/>
    </g>
    <path id="Caminho_112" data-name="Caminho 112" d="M695.31,514.328s15.54,6.52,25.787-7.908" transform="translate(-322.793 -222.146)" fill="none" stroke="#000" stroke-miterlimit="10" stroke-width="1" opacity="0.1"/>
    <path id="Caminho_113" data-name="Caminho 113" d="M700.29,535.5s12.691-8.252,28.857-.27" transform="translate(-324.715 -231.926)" fill="none" stroke="#000" stroke-miterlimit="10" stroke-width="1" opacity="0.1"/>
    <path id="Caminho_114" data-name="Caminho 114" d="M561.93,530.848s5.329-12.022,19.561-2.855" transform="translate(-271.305 -229.144)" fill="none" stroke="#000" stroke-miterlimit="10" stroke-width="1" opacity="0.1"/>
    <path id="Caminho_115" data-name="Caminho 115" d="M533.79,237.7l10.867-9.824s42.137-2.763,43.881,11.561c0,0,14.938-16.983,46.355-13.2l13.293,10.585-36.74,16.123-35.7,12.384-26.3-11.77Z" transform="translate(-260.442 -113.776)" opacity="0.1"/>
    <path id="Caminho_116" data-name="Caminho 116" d="M533.79,238.7l10.867-9.824s42.137-2.763,43.881,11.561c0,0,14.938-16.983,46.355-13.2l13.293,10.585-36.74,16.123-35.7,12.384-26.3-11.77Z" transform="translate(-260.442 -114.162)" fill="#d5d6db"/>
    <path id="Caminho_117" data-name="Caminho 117" d="M437.38,204.83l4.807,57.511,50.96,2.56-2.21-57.266-.043-.964Z" transform="translate(-168.839 -79.066)" opacity="0.1"/>
    <path id="Caminho_118" data-name="Caminho 118" d="M437.38,202.83l4.807,57.511,50.96,2.56-2.21-57.266-.043-.964Z" transform="translate(-168.839 -78.294)" fill="#6c63ff"/>
    <path id="Caminho_119" data-name="Caminho 119" d="M602.279,202.83l-52.569,7.883v57.769l51.371-7.423Z" transform="translate(-212.202 -78.294)" opacity="0.1"/>
    <path id="Caminho_120" data-name="Caminho 120" d="M602.279,200.83l-52.569,7.883v57.769l51.371-7.423Z" transform="translate(-212.202 -77.522)" fill="#6c63ff"/>
    <path id="Caminho_121" data-name="Caminho 121" d="M597.286,223.79l-28.4,3.156.62,9.676,27.758-3.033Z" transform="translate(-219.605 -86.386)" fill="#fff" opacity="0.3"/>
    <path id="Caminho_122" data-name="Caminho 122" d="M537.514,357.878l2.892,7.779s4.3,3.684,9,1.842,8.8-2.757,10.849-4.55,4.912-10.8,4.912-10.8,2.867-9.824,5.728-12.28,10.438-36.292,0-32.983S552.477,340.9,552.477,340.9a7.28,7.28,0,0,1-4.5,2.456c-2.659.209-7.982-.411-9.007,1.842S534.444,353.377,537.514,357.878Z" transform="translate(-261.403 -145.034)" fill="#be6f72"/>
    <path id="Caminho_123" data-name="Caminho 123" d="M628.6,256.663a17.682,17.682,0,0,1-15.417-3.843l2.216,57.259a15.626,15.626,0,0,0,13.2,4.359Z" transform="translate(-291.088 -124.251)" opacity="0.1"/>
    <path id="Caminho_124" data-name="Caminho 124" d="M628.6,254.663a17.682,17.682,0,0,1-15.417-3.843l2.216,57.259a15.626,15.626,0,0,0,13.2,4.359Z" transform="translate(-291.088 -123.479)" fill="#6c63ff"/>
    <path id="Caminho_125" data-name="Caminho 125" d="M628.6,254.663a17.682,17.682,0,0,1-15.417-3.843l2.216,57.259a15.626,15.626,0,0,0,13.2,4.359Z" transform="translate(-291.088 -123.479)" opacity="0.1"/>
    <path id="Caminho_126" data-name="Caminho 126" d="M640.29,242.982s21.385-6.539,26.96-5.618" transform="translate(-301.554 -118.25)" opacity="0.1"/>
    <path id="Caminho_127" data-name="Caminho 127" d="M586.121,239.552s-20.728-4.912-24.191-3.518" transform="translate(-271.305 -117.674)" opacity="0.1"/>
    <path id="Caminho_128" data-name="Caminho 128" d="M662.25,245.748s14.3-5.243,19.469-2.751" transform="translate(-310.031 -120.199)" opacity="0.1"/>
    <path id="Caminho_129" data-name="Caminho 129" d="M650.52,455.367a47.007,47.007,0,0,1,7.048-4.378,114.989,114.989,0,0,0,10.438-6.379" transform="translate(-305.503 -198.286)" opacity="0.1"/>
    <path id="Caminho_130" data-name="Caminho 130" d="M551.855,360.08s-8.97,7.337-11.666,7.982-4.359,6.367-4.359,6.367" transform="translate(-261.229 -165.656)" opacity="0.1"/>
    <path id="Caminho_131" data-name="Caminho 131" d="M690.987,356.109l-2.861,7.8s-4.3,3.684-9.007,1.842-8.8-2.757-10.849-4.55-4.912-10.8-4.912-10.8-2.861-9.824-5.728-12.279-10.438-36.292,0-32.983,18.419,34.008,18.419,34.008a7.28,7.28,0,0,0,4.5,2.456c2.659.209,7.982-.411,9.007,1.842S694.057,351.627,690.987,356.109Z" transform="translate(-306.184 -144.358)" fill="#be6f72"/>
    <path id="Caminho_132" data-name="Caminho 132" d="M707.15,364.94s5.863,3.77,5.839,8.276" transform="translate(-327.363 -167.532)" opacity="0.1"/>
    <circle id="Elipse_10" data-name="Elipse 10" cx="27.426" cy="27.426" r="27.426" transform="translate(302.61 33.28)" fill="#be6f72"/>
    <path id="Caminho_133" data-name="Caminho 133" d="M589.532,112.12c3.328-.522,6.244-2.456,9.424-3.567,7.116-2.5,14.987-.786,22.189,1.467,2.763.866,5.569,1.842,8.467,1.842s5.974-1.185,7.454-3.684a8.328,8.328,0,0,0-.049-7.693,21.667,21.667,0,0,0-5.01-6.183c-6.385-6.029-14.306-11.666-23.067-11.052a31.747,31.747,0,0,0-10.137,2.9,111.746,111.746,0,0,0-11.9,5.992c-2.953,1.713-8.424,4-10.124,7.134C572.911,106.337,583.515,113.066,589.532,112.12Z" transform="translate(-276.717 -58.775)" fill="#3e373a"/>
    <path id="Caminho_134" data-name="Caminho 134" d="M637.064,116.623c-1.48,2.5-4.556,3.684-7.454,3.684a28.8,28.8,0,0,1-8.473-1.805c-7.2-2.253-15.067-3.972-22.189-1.467-3.174,1.111-6.1,3.07-9.424,3.561-4.85.761-12.66-3.463-13.508-8.835-.952,6.207,8.1,11.524,13.508,10.677,3.328-.522,6.25-2.456,9.424-3.561,7.122-2.505,14.987-.786,22.189,1.467,2.769.866,5.569,1.842,8.473,1.805s5.974-1.179,7.454-3.684a7.19,7.19,0,0,0,.86-4.488,6.619,6.619,0,0,1-.86,2.646Z" transform="translate(-276.716 -69.798)" opacity="0.1"/>
    <path id="Caminho_135" data-name="Caminho 135" d="M1031.7,661.63s3.641,4.758-1.682,11.948-9.707,13.256-7.939,17.738c0,0,8.031-13.348,14.563-13.538S1038.878,669.655,1031.7,661.63Z" transform="translate(-448.78 -282.061)" fill="#6c63ff"/>
    <path id="Caminho_136" data-name="Caminho 136" d="M1031.831,661.63a5.894,5.894,0,0,1,.743,1.492c6.373,7.491,9.774,14.484,3.641,14.656-5.71.166-12.556,10.376-14.2,12.949a6.025,6.025,0,0,0,.19.614s8.031-13.348,14.563-13.538S1039.009,669.655,1031.831,661.63Z" transform="translate(-448.911 -282.061)" opacity="0.1"/>
    <path id="Caminho_137" data-name="Caminho 137" d="M1048.471,670.837c0,1.676-.19,3.033-.418,3.033s-.424-1.357-.424-3.033.233-.884.467-.884S1048.471,669.16,1048.471,670.837Z" transform="translate(-458.797 -285.202)" fill="#ffd037"/>
    <path id="Caminho_138" data-name="Caminho 138" d="M1050.986,674.027c-1.467.8-2.75,1.283-2.861,1.081s.989-1.019,2.456-1.842.89-.221,1,0S1052.46,673.223,1050.986,674.027Z" transform="translate(-458.985 -286.391)" fill="#ffd037"/>
    <path id="Caminho_139" data-name="Caminho 139" d="M1001.526,661.63s-3.641,4.758,1.682,11.948,9.707,13.256,7.933,17.738c0,0-8.025-13.348-14.563-13.538S994.367,669.655,1001.526,661.63Z" transform="translate(-437.847 -282.061)" fill="#6c63ff"/>
    <path id="Caminho_140" data-name="Caminho 140" d="M1001.526,661.63a5.9,5.9,0,0,0-.743,1.492c-6.373,7.491-9.775,14.484-3.641,14.656,5.7.166,12.556,10.376,14.2,12.949a4.745,4.745,0,0,1-.2.614s-8.025-13.348-14.563-13.538S994.367,669.655,1001.526,661.63Z" transform="translate(-437.847 -282.061)" opacity="0.1"/>
    <path id="Caminho_141" data-name="Caminho 141" d="M995.64,670.837c0,1.676.184,3.033.418,3.033s.424-1.357.424-3.033-.24-.884-.467-.884S995.64,669.16,995.64,670.837Z" transform="translate(-438.727 -285.202)" fill="#ffd037"/>
    <path id="Caminho_142" data-name="Caminho 142" d="M991.3,674.027c1.467.8,2.751,1.283,2.861,1.081s-.988-1.019-2.456-1.842-.89-.221-1,0S989.825,673.223,991.3,674.027Z" transform="translate(-436.706 -286.391)" fill="#ffd037"/>
    <ellipse id="Elipse_11" data-name="Elipse 11" cx="38.066" cy="5.839" rx="38.066" ry="5.839" transform="translate(535.233 433.998)" fill="#6c63ff" opacity="0.1"/>
    <path id="Caminho_143" data-name="Caminho 143" d="M1029.6,698.133l-.184,1.486-.258,2.1-.1.878-.258,2.1-.111.878-.252,2.094-2.916,23.884c-.258,2.13-3.739,3.794-7.945,3.794h-15.134c-4.206,0-7.681-1.664-7.945-3.794l-2.916-23.884-.258-2.094-.1-.878-.258-2.1-.111-.878-.252-2.1-.184-1.486c-.141-1.228,1.738-2.223,4.12-2.223h30.957C1027.858,695.91,1029.743,696.923,1029.6,698.133Z" transform="translate(-436.704 -295.294)" fill="#65617d"/>
    <path id="Caminho_144" data-name="Caminho 144" d="M940.952,658.53l-.252,2.1H902.388l-.258-2.1Z" transform="translate(-348.244 -254.206)" fill="#9d9cb5"/>
    <path id="Caminho_145" data-name="Caminho 145" d="M940.817,663.38l-.252,2.1H902.978l-.258-2.1Z" transform="translate(-348.472 -256.078)" fill="#9d9cb5"/>
    <path id="Caminho_146" data-name="Caminho 146" d="M940.687,668.23l-.258,2.1H903.572l-.252-2.1Z" transform="translate(-348.704 -257.95)" fill="#9d9cb5"/>
  </g>
</svg>
